<?xml version="1.0" standalone="no"?><svg xmlns="http://www.w3.org/2000/svg" viewBox="0 0 1440 320"><path fill="purple" fill-opacity="0.9" d="M0,192L40,202.7C80,213,160,235,240,240C320,245,400,235,480,240C560,245,640,267,720,256C800,245,880,203,960,202.7C1040,203,1120,245,1200,256C1280,267,1360,245,1400,234.7L1440,224L1440,320L1400,320C1360,320,1280,320,1200,320C1120,320,1040,320,960,320C880,320,800,320,720,320C640,320,560,320,480,320C400,320,320,320,240,320C160,320,80,320,40,320L0,320Z"></path></svg>